<?xml version="1.0" encoding="UTF-8"?>
<svg version="1.1" xmlns="http://www.w3.org/2000/svg" width="709" height="228">
<path d="M0 0 C85.14 0 170.28 0 258 0 C261.96 10.89 261.96 10.89 266 22 C267.86532557 26.70565269 269.74237538 31.39131925 271.6875 36.0625 C275.78431959 45.96462527 279.75179447 55.9038505 283.46484375 65.95703125 C285.69087971 71.92180646 288.15080719 77.79612428 290.5625 83.6875 C291.54308764 86.087191 292.52356087 88.48692877 293.50390625 90.88671875 C294.15081421 92.46779419 294.15081421 92.46779419 294.81079102 94.08081055 C295.88441346 96.716266 296.94311514 99.35778786 298 102 C298.33 68.34 298.66 34.68 299 0 C299.33 0 299.66 0 300 0 C300 37.62 300 75.24 300 114 C300.33 76.38 300.66 38.76 301 0 C321.13 0 341.26 0 362 0 C362 39.27 362 78.54 362 119 C365.3 119 368.6 119 372 119 C372.350625 117.700625 372.70125 116.40125 373.0625 115.0625 C375.20610539 107.90366689 378.1880544 101.09873873 381.07714844 94.21777344 C382.56646902 90.63867604 384.00356166 87.03907006 385.4375 83.4375 C385.69635986 82.78821533 385.95521973 82.13893066 386.22192383 81.4699707 C386.81539369 79.9802901 387.40782597 78.49019619 388 77 C388.66 77.33 389.32 77.66 390 78 C390.144375 77.13375 390.28875 76.2675 390.4375 75.375 C390.623125 74.26125 390.80875 73.1475 391 72 C391.12479736 71.07695068 391.24959473 70.15390137 391.37817383 69.20288086 C392.05857705 65.69828333 393.16766816 62.685398 394.51171875 59.37890625 C394.7624263 58.75708969 395.01313385 58.13527313 395.2714386 57.49461365 C396.07110327 55.51488112 396.87905888 53.53866249 397.6875 51.5625 C398.21085301 50.27171394 398.73364364 48.98069971 399.25585938 47.68945312 C400.30353949 45.10080406 401.35390576 42.51326997 402.40625 39.92651367 C404.02538324 35.94240685 405.6312141 31.95306166 407.23046875 27.9609375 C407.6999292 26.78966309 408.16938965 25.61838867 408.65307617 24.41162109 C410.39749705 19.9931804 412.07215973 15.5504637 413.7265625 11.09765625 C415.28380745 7.30963403 417.16838191 3.66323618 419 0 C442.76 0 466.52 0 491 0 C493.7225 6.97125 496.445 13.9425 499.25 21.125 C505.12379026 36.15293497 511.03721363 51.16245144 517.06103516 66.13085938 C520.33684424 74.28842582 523.51474747 82.47866304 526.59228516 90.71313477 C526.88409668 91.49100342 527.1759082 92.26887207 527.4765625 93.0703125 C527.72486816 93.73820801 527.97317383 94.40610352 528.22900391 95.09423828 C529.04451559 97.11003443 530.0275296 99.05505919 531 101 C531.33 67.67 531.66 34.34 532 0 C549.82 0 567.64 0 586 0 C596.80997758 11.89097534 596.80997758 11.89097534 601.23046875 16.984375 C603.25114956 19.28607764 605.31312618 21.54764379 607.375 23.8125 C610.40973184 27.16801725 613.3041891 30.58838182 616.125 34.125 C620.63112929 39.70627593 625.52561483 44.86924335 630.46435547 50.06762695 C634.97005505 54.83430305 639.19743934 59.71497653 643.265625 64.86328125 C645.1213029 67.22468144 645.1213029 67.22468144 648 70 C648.33 46.9 648.66 23.8 649 0 C668.8 0 688.6 0 709 0 C709 57.09 709 114.18 709 173 C693.49 173 677.98 173 662 173 C656.96412992 167.96412992 652.26312776 163.24226416 647.6796875 157.8984375 C645.47834607 155.41040974 643.11911485 153.10805923 640.75 150.78125 C638.29365151 148.28103815 636.03690632 145.62319484 633.75 142.96875 C632.06201714 141.06976929 630.31230266 139.27994012 628.5 137.5 C623.68522743 132.7504388 618.99578491 128.10533381 616 122 C614.26599946 120.26599946 612.49791324 118.70348146 610.625 117.125 C602.60600407 110.24202849 602.60600407 110.24202849 602 106 C601.0409375 105.5359375 601.0409375 105.5359375 600.0625 105.0625 C598 104 598 104 597 103 C596.67 124.78 596.34 146.56 596 169 C594.515 169.99 594.515 169.99 593 171 C592.67 171.66 592.34 172.32 592 173 C559.33 173 526.66 173 493 173 C492.34 172.01 491.68 171.02 491 170 C490.34 169.67 489.68 169.34 489 169 C487.35 164.05 485.7 159.1 484 154 C454.795 153.505 454.795 153.505 425 153 C423.515 158.445 423.515 158.445 422 164 C419.52747253 169.73626374 419.52747253 169.73626374 417 171 C416.67 171.66 416.34 172.32 416 173 C364.19 173 312.38 173 259 173 C254 165 254 165 251 153 C231.53 153 212.06 153 192 153 C190.02 158.61 188.04 164.22 186 170 C185.01 170.99 184.02 171.98 183 173 C144.06 173 105.12 173 65 173 C64.01 172.01 63.02 171.02 62 170 C62 130.4 62 90.8 62 50 C41.54 50 21.08 50 0 50 C0 33.5 0 17 0 0 Z M259 10 C260 12 260 12 260 12 Z M415 12 C416 14 416 14 416 14 Z M260 13 C261 15 261 15 261 15 Z M261 15 C262 17 262 17 262 17 Z M413 17 C414 19 414 19 414 19 Z M495 17 C496 19 496 19 496 19 Z M262 18 C263 20 263 20 263 20 Z M411 22 C412 24 412 24 412 24 Z M409 27 C410 29 410 29 410 29 Z M407 32 C408 34 408 34 408 34 Z M501 32 C502 34 502 34 502 34 Z M268 33 C269 35 269 35 269 35 Z M502 34 C503 36 503 36 503 36 Z M406 35 C407 37 407 37 407 37 Z M503 37 C504 39 504 39 504 39 Z M273 46 C274 48 274 48 274 48 Z M123 48 C123 48.33 123 48.66 123 49 C138.18 49 153.36 49 169 49 C169 48.67 169 48.34 169 48 C153.82 48 138.64 48 123 48 Z M123 50 C123 87.29 123 124.58 123 163 C124.85868084 159.28263831 125.24708399 158.24689053 125.20254517 154.38092041 C125.19688034 153.45827896 125.19121552 152.53563751 125.18537903 151.58503723 C125.16883774 150.58018784 125.15229645 149.57533844 125.13525391 148.54003906 C125.12579239 147.47631577 125.11633087 146.41259247 125.10658264 145.31663513 C125.07289566 141.79945726 125.02478219 138.28263119 124.9765625 134.765625 C124.95039638 132.32754436 124.92512929 129.88945391 124.90072632 127.45135498 C124.83406578 121.03313804 124.75517465 114.6151271 124.67376709 108.19708252 C124.5928566 101.64839589 124.52347048 95.09958838 124.453125 88.55078125 C124.31338548 75.70037712 124.16112077 62.85015292 124 50 C123.67 50 123.34 50 123 50 Z M126 50 C126 83 126 116 126 150 C127.64200751 147.53698874 128.58784024 145.70876479 129.59375 142.9921875 C129.89684082 142.18289795 130.19993164 141.3736084 130.51220703 140.53979492 C130.83817871 139.6604126 131.16415039 138.78103027 131.5 137.875 C134.97859404 128.60713593 138.60562362 119.40682513 142.32226562 110.23193359 C144.58876854 104.61328408 146.76817458 98.96937935 148.875 93.2890625 C150.96430876 87.66598461 153.14861458 82.09103191 155.4296875 76.54296875 C155.71345245 75.85250961 155.99721741 75.16205048 156.2895813 74.45066833 C157.44768678 71.63861145 158.60904649 68.82793741 159.77539062 66.01928711 C160.64390514 63.92487099 161.50597151 61.82789438 162.3671875 59.73046875 C162.6327243 59.09618454 162.89826111 58.46190033 163.17184448 57.80839539 C164.31197277 55.02179907 165 53.04608868 165 50 C152.13 50 139.26 50 126 50 Z M400 50 C401 52 401 52 401 52 Z M508 50 C509 52 509 52 509 52 Z M275 51 C276 53 276 53 276 53 Z M166 52 C167 54 167 54 167 54 Z M276 53 C277 55 277 55 277 55 Z M165 54 C166 56 166 56 166 56 Z M398 55 C399 57 399 57 399 57 Z M454 61 C455 63 455 63 455 63 Z M160 67 C161 69 161 69 161 69 Z M221 67 C220.80889648 67.57331055 220.61779297 68.14662109 220.42089844 68.73730469 C216.94726562 79.15820312 213.47363281 89.57910156 210 100 C217.59 100 225.18 100 233 100 C229.37 89.11 225.74 78.22 222 67 C221.67 67 221.34 67 221 67 Z M223 67 C224 69 224 69 224 69 Z M393 67 C394 70 394 70 394 70 Z M452 67 C453 69 453 69 453 69 Z M454 68 C451.3301776 75.37325421 448.70455279 82.76059543 446.1875 90.1875 C445.76855469 91.41855469 445.34960938 92.64960937 444.91796875 93.91796875 C443.85727358 96.94322418 443.85727358 96.94322418 444 100 C451.26 100 458.52 100 466 100 C464.73568157 95.78960941 463.46383038 91.58174918 462.1875 87.375 C461.65286133 85.59029297 461.65286133 85.59029297 461.10742188 83.76953125 C460.75615234 82.61582031 460.40488281 81.46210937 460.04296875 80.2734375 C459.72352295 79.21560059 459.40407715 78.15776367 459.07495117 77.06787109 C457.95973139 73.88507486 456.56910253 70.98188102 455 68 C454.67 68 454.34 68 454 68 Z M159 69 C160 71 160 71 160 71 Z M218 69 C219 71 219 71 219 71 Z M282 69 C283 71 283 71 283 71 Z M224 70 C225 72 225 72 225 72 Z M392 70 C393 72 393 72 393 72 Z M451 70 C452 72 452 72 452 72 Z M516 70 C517 72 517 72 517 72 Z M458 71 C459 73 459 73 459 73 Z M158 72 C159 74 159 74 159 74 Z M217 72 C218 74 218 74 218 74 Z M225 73 C226 75 226 75 226 75 Z M450 73 C451 75 451 75 451 75 Z M518 75 C519 77 519 77 519 77 Z M156 77 C157 79 157 79 157 79 Z M215 78 C216 80 216 80 216 80 Z M448 79 C449 81 449 81 449 81 Z M447 81 C448 84 448 84 448 84 Z M521 83 C522 85 522 85 522 85 Z M446 85 C447 87 447 87 447 87 Z M522 85 C523 88 523 88 523 88 Z M212 86 C213 88 213 88 213 88 Z M386 86 C387 88 387 88 387 88 Z M463 86 C464 88 464 88 464 88 Z M152 87 C153 89 153 89 153 89 Z M230 87 C231 89 231 89 231 89 Z M289 87 C290 89 290 89 290 89 Z M445 88 C446 90 446 90 446 90 Z M523 88 C524 90 524 90 524 90 Z M211 89 C212 91 212 91 212 91 Z M290 89 C291 91 291 91 291 91 Z M464 89 C465 91 465 91 465 91 Z M151 90 C152 92 152 92 152 92 Z M231 90 C232 92 232 92 232 92 Z M465 92 C466 94 466 94 466 94 Z M232 93 C233 95 233 95 233 95 Z M466 95 C467 97 467 97 467 97 Z M208 98 C209 100 209 100 209 100 Z M467 98 C468 100 468 100 468 100 Z M147 100 C148 102 148 102 148 102 Z M380 101 C381 103 381 103 381 103 Z M379 103 C380 105 380 105 380 105 Z M296 104 C297 106 297 106 297 106 Z M145 105 C146 107 146 107 146 107 Z M378 106 C379 108 379 108 379 108 Z M530 106 C531 108 531 108 531 108 Z M297 107 C298 109 298 109 298 109 Z M377 108 C378 110 378 110 378 110 Z M376 111 C377 113 377 113 377 113 Z M375 113 C376 115 376 115 376 115 Z M533 113 C534 115 534 115 534 115 Z M374 115 C375 118 375 118 375 118 Z M373 118 C374 121 374 121 374 121 Z M139 120 C140 122 140 122 140 122 Z M138 123 C139 125 139 125 139 125 Z M135 130 C136 132 136 132 136 132 Z M132 138 C133 140 133 140 133 140 Z M130 143 C131 145 131 145 131 145 Z M190 150 C190 150.33 190 150.66 190 151 C210.79 151 231.58 151 253 151 C253 150.67 253 150.34 253 150 C232.21 150 211.42 150 190 150 Z M423 150 C423 150.33 423 150.66 423 151 C443.79 151 464.58 151 486 151 C486 150.67 486 150.34 486 150 C465.21 150 444.42 150 423 150 Z M486 153 C487 155 487 155 487 155 Z M126 154 C127 156 127 156 127 156 Z M253 154 C254 156 254 156 254 156 Z M422 154 C423 156 423 156 423 156 Z M188 155 C189 157 189 157 189 157 Z M125 156 C126 158 126 158 126 158 Z M487 156 C488 158 488 158 488 158 Z M254 157 C255 159 255 159 255 159 Z M421 157 C422 159 422 159 422 159 Z M187 158 C188 161 188 161 188 161 Z M420 159 C421 161 421 161 421 161 Z M488 159 C489 161 489 161 489 161 Z M186 161 C187 163 187 163 187 163 Z M419 162 C420 164 420 164 420 164 Z M489 162 C490 164 490 164 490 164 Z M185 164 C186 166 186 166 186 166 Z M418 165 C419 167 419 167 419 167 Z M490 165 C491 167 491 167 491 167 Z M184 167 C185 169 185 169 185 169 Z " fill="#899438" transform="translate(0,0)"/>
<path d="M0 0 C17.82 0 35.64 0 54 0 C64.80997758 11.89097534 64.80997758 11.89097534 69.23046875 16.984375 C71.25114956 19.28607764 73.31312618 21.54764379 75.375 23.8125 C78.40973184 27.16801725 81.3041891 30.58838182 84.125 34.125 C88.63112929 39.70627593 93.52561483 44.86924335 98.46435547 50.06762695 C102.97005505 54.83430305 107.19743934 59.71497653 111.265625 64.86328125 C113.1213029 67.22468144 113.1213029 67.22468144 116 70 C116.495 35.35 116.495 35.35 117 0 C136.8 0 156.6 0 177 0 C177 57.09 177 114.18 177 173 C161.49 173 145.98 173 130 173 C124.96412992 167.96412992 120.26312776 163.24226416 115.6796875 157.8984375 C113.47834607 155.41040974 111.11911485 153.10805923 108.75 150.78125 C106.29365151 148.28103815 104.03690632 145.62319484 101.75 142.96875 C100.06201714 141.06976929 98.31230266 139.27994012 96.5 137.5 C91.68522743 132.7504388 86.99578491 128.10533381 84 122 C82.26599946 120.26599946 80.49791324 118.70348146 78.625 117.125 C70.60600407 110.24202849 70.60600407 110.24202849 70 106 C69.0409375 105.5359375 69.0409375 105.5359375 68.0625 105.0625 C66 104 66 104 65 103 C64.67 124.78 64.34 146.56 64 169 C63.01 169.66 62.02 170.32 61 171 C60.67 171.66 60.34 172.32 60 173 C27.33 173 -5.34 173 -39 173 C-39 172.01 -39 171.02 -39 170 C-25.14 170 -11.28 170 3 170 C3.04606203 163.32868227 3.08584315 156.65792266 3.10986328 149.98657227 C3.11988328 147.71995162 3.13350297 145.45334377 3.15087891 143.18676758 C3.17530362 139.9174482 3.18652343 136.64830064 3.1953125 133.37890625 C3.20563507 132.37541641 3.21595764 131.37192657 3.22659302 130.33802795 C3.22755083 124.24910611 2.60462966 118.88401508 1 113 C0.67 112.67 0.34 112.34 0 112 C0 75.04 0 38.08 0 0 Z " fill="#899437" transform="translate(532,0)"/>
<path d="M0 0 C23.76 0 47.52 0 72 0 C76.08375 10.456875 76.08375 10.456875 80.25 21.125 C86.12463648 36.15509998 92.04018819 51.16623462 98.06323242 66.13745117 C101.30294587 74.2071785 104.45135673 82.30723741 107.50439453 90.44946289 C108.81628928 93.9416227 110.15576221 97.38912328 111.68359375 100.79296875 C112.82116227 103.56431521 113.36491961 105.43700162 113.5 108.375 C113.73462828 111.57034039 114.33848133 114.11165848 115.52661133 117.07788086 C117.4106834 122.56166638 117.2879595 127.63746504 117.07421875 133.37890625 C117.04777786 134.43158188 117.02133698 135.48425751 116.99409485 136.5688324 C116.90696997 139.900674 116.79759888 143.23134649 116.6875 146.5625 C116.6241749 148.8339437 116.5623112 151.10542865 116.50195312 153.37695312 C116.35424982 158.9188619 116.17642244 164.45863502 116 170 C101.15 170 86.3 170 71 170 C68.88455778 164.71139445 66.80123414 159.40370243 65 154 C35.795 153.505 35.795 153.505 6 153 C5.01 156.63 4.02 160.26 3 164 C0.52747253 169.73626374 0.52747253 169.73626374 -2 171 C-2.33 171.66 -2.66 172.32 -3 173 C-17.13837958 173.02374712 -31.27675592 173.04111092 -45.4151516 173.05181217 C-51.98527102 173.05695686 -58.55537674 173.06389433 -65.12548828 173.07543945 C-96.43274686 173.12903951 -127.70635242 172.97674679 -159 172 C-159 171.67 -159 171.34 -159 171 C-115.77 170.67 -72.54 170.34 -28 170 C-25.03 161.42 -22.06 152.84 -19 144 C-18.01 141.69 -17.02 139.38 -16 137 C-15.44631413 135.30203001 -14.92120215 133.59421563 -14.4375 131.875 C-13.46481072 128.4348673 -12.34202758 125.35506894 -11 122 C-22.55 122 -34.1 122 -46 122 C-43.70846477 107.10502103 -43.70846477 107.10502103 -40.75 100.625 C-40.12800644 99.19179642 -39.50693319 97.75819314 -38.88671875 96.32421875 C-38.57395996 95.61313965 -38.26120117 94.90206055 -37.93896484 94.16943359 C-36.40384639 90.62261545 -34.98460601 87.03078 -33.5625 83.4375 C-33.06394342 82.1861416 -32.56525993 80.93483374 -32.06640625 79.68359375 C-31.53853516 78.35521484 -31.53853516 78.35521484 -31 77 C-30.34 77.33 -29.68 77.66 -29 78 C-28.7834375 76.700625 -28.7834375 76.700625 -28.5625 75.375 C-28.376875 74.26125 -28.19125 73.1475 -28 72 C-27.87520264 71.07695068 -27.75040527 70.15390137 -27.62182617 69.20288086 C-26.94142295 65.69828333 -25.83233184 62.685398 -24.48828125 59.37890625 C-24.2375737 58.75708969 -23.98686615 58.13527313 -23.7285614 57.49461365 C-22.92889673 55.51488112 -22.12094112 53.53866249 -21.3125 51.5625 C-20.78914699 50.27171394 -20.26635636 48.98069971 -19.74414062 47.68945312 C-18.69646051 45.10080406 -17.64609424 42.51326997 -16.59375 39.92651367 C-14.97461676 35.94240685 -13.3687859 31.95306166 -11.76953125 27.9609375 C-11.3000708 26.78966309 -10.83061035 25.61838867 -10.34692383 24.41162109 C-8.60250295 19.9931804 -6.92784027 15.5504637 -5.2734375 11.09765625 C-3.71619255 7.30963403 -1.83161809 3.66323618 0 0 Z M-4 12 C-3 14 -3 14 -3 14 Z M-6 17 C-5 19 -5 19 -5 19 Z M76 17 C77 19 77 19 77 19 Z M-8 22 C-7 24 -7 24 -7 24 Z M-10 27 C-9 29 -9 29 -9 29 Z M-12 32 C-11 34 -11 34 -11 34 Z M82 32 C83 34 83 34 83 34 Z M83 34 C84 36 84 36 84 36 Z M-13 35 C-12 37 -12 37 -12 37 Z M84 37 C85 39 85 39 85 39 Z M-19 50 C-18 52 -18 52 -18 52 Z M89 50 C90 52 90 52 90 52 Z M-21 55 C-20 57 -20 57 -20 57 Z M35 61 C36 63 36 63 36 63 Z M-26 67 C-25 70 -25 70 -25 70 Z M33 67 C34 69 34 69 34 69 Z M35 68 C32.3301776 75.37325421 29.70455279 82.76059543 27.1875 90.1875 C26.76855469 91.41855469 26.34960938 92.64960937 25.91796875 93.91796875 C24.85727358 96.94322418 24.85727358 96.94322418 25 100 C32.26 100 39.52 100 47 100 C45.73568157 95.78960941 44.46383038 91.58174918 43.1875 87.375 C42.65286133 85.59029297 42.65286133 85.59029297 42.10742188 83.76953125 C41.75615234 82.61582031 41.40488281 81.46210937 41.04296875 80.2734375 C40.72352295 79.21560059 40.40407715 78.15776367 40.07495117 77.06787109 C38.95973139 73.88507486 37.56910253 70.98188102 36 68 C35.67 68 35.34 68 35 68 Z M-27 70 C-26 72 -26 72 -26 72 Z M32 70 C33 72 33 72 33 72 Z M97 70 C98 72 98 72 98 72 Z M39 71 C40 73 40 73 40 73 Z M31 73 C32 75 32 75 32 75 Z M99 75 C100 77 100 77 100 77 Z M29 79 C30 81 30 81 30 81 Z M28 81 C29 84 29 84 29 84 Z M102 83 C103 85 103 85 103 85 Z M27 85 C28 87 28 87 28 87 Z M103 85 C104 88 104 88 104 88 Z M-33 86 C-32 88 -32 88 -32 88 Z M44 86 C45 88 45 88 45 88 Z M26 88 C27 90 27 90 27 90 Z M104 88 C105 90 105 90 105 90 Z M45 89 C46 91 46 91 46 91 Z M46 92 C47 94 47 94 47 94 Z M47 95 C48 97 48 97 48 97 Z M48 98 C49 100 49 100 49 100 Z M-39 101 C-38 103 -38 103 -38 103 Z M-40 103 C-39 105 -39 105 -39 105 Z M-41 106 C-40 108 -40 108 -40 108 Z M111 106 C112 108 112 108 112 108 Z M-42 108 C-41 110 -41 110 -41 110 Z M-43 111 C-42 113 -42 113 -42 113 Z M-44 113 C-43 115 -43 115 -43 115 Z M4 150 C4 150.33 4 150.66 4 151 C24.79 151 45.58 151 67 151 C67 150.67 67 150.34 67 150 C46.21 150 25.42 150 4 150 Z M67 153 C68 155 68 155 68 155 Z M3 154 C4 156 4 156 4 156 Z M68 156 C69 158 69 158 69 158 Z M2 157 C3 159 3 159 3 159 Z M1 159 C2 161 2 161 2 161 Z M69 159 C70 161 70 161 70 161 Z M0 162 C1 164 1 164 1 164 Z M70 162 C71 164 71 164 71 164 Z M-1 165 C0 167 0 167 0 167 Z M71 165 C72 167 72 167 72 167 Z " fill="#4C7FB9" transform="translate(419,0)"/>
<path d="M0 0 C62.04 0 124.08 0 188 0 C184.67144949 11.09516835 181.13664144 21.77017751 176.203125 32.24609375 C174.10944428 37.03844734 172.55807894 42.01240652 171 47 C169.35 47.66 167.7 48.32 166 49 C166 49.33 166 49.66 166 50 C152.8 50 139.6 50 126 50 C126 83.99 126 117.98 126 153 C125.34 153.66 124.68 154.32 124 155 C123.67 159.95 123.34 164.9 123 170 C142.47 170 161.94 170 182 170 C181.67 170.66 181.34 171.32 181 172 C142.32364631 172.81049448 103.68457811 173.14369135 65 173 C64.01 172.01 63.02 171.02 62 170 C62 130.4 62 90.8 62 50 C41.54 50 21.08 50 0 50 C0 33.5 0 17 0 0 Z " fill="#4981B9" transform="translate(0,0)"/>
<path d="M0 0 C20.13 0 40.26 0 61 0 C61 39.27 61 78.54 61 119 C64.3 119 67.6 119 71 119 C71.99 117.02 71.99 117.02 73 115 C72.67 116.98 72.34 118.96 72 121 C89.325 121.495 89.325 121.495 107 122 C104.95898617 132.20506916 101.06456771 141.97496065 97.265625 151.640625 C95.57456461 156.12924209 94.07677832 160.67358683 92.61132812 165.24023438 C91.10146423 169.89853577 91.10146423 169.89853577 90 171 C60.63 171 31.26 171 1 171 C0.13759616 135.36981912 -0.13148956 99.77107517 -0.07202661 64.13407767 C-0.05938565 56.41425879 -0.05419896 48.69443613 -0.04882812 40.97460938 C-0.03929548 27.31639139 -0.01923391 13.65821535 0 0 Z " fill="#ED2C82" transform="translate(301,0)"/>
<path d="M0 0 C18.91569087 0 18.91569087 0 25 6 C26.4375 8.875 26.4375 8.875 27 11 C27.4846875 10.69964844 27.969375 10.39929688 28.46875 10.08984375 C32.79299577 7.63666586 36.06683315 6.32332274 41.03515625 7.23828125 C44.66982231 8.64734662 47.30670157 11.24778566 50 14 C51.32 13.67 52.64 13.34 54 13 C54 12.01 54 11.02 54 10 C56.55574607 7.79677063 58.39945623 6.99493924 61.78125 7.0234375 C64.53355408 7.28589949 67.26413055 7.6023167 70 8 C70 11.3 70 14.6 70 18 C67.69 18 65.38 18 63 18 C62.505 17.01 62.505 17.01 62 16 C61.505 17.485 61.505 17.485 61 19 C62.60875 19.185625 62.60875 19.185625 64.25 19.375 C67.37863615 19.89643936 69.33480424 20.40088254 72 22 C72.99 24.97 72.99 24.97 74 28 C74.33 28 74.66 28 75 28 C75 24.04 75 20.08 75 16 C75.99 15.67 76.98 15.34 78 15 C76.68 15 75.36 15 74 15 C74.75 8.25 74.75 8.25 77 6 C77.64767793 3.42938689 77.64767793 3.42938689 78 1 C80.31 1 82.62 1 85 1 C85.495 2.98 85.495 2.98 86 5 C84.68 6.32 83.36 7.64 82 9 C82.99 9.99 82.99 9.99 84 11 C84.99 10.67 85.98 10.34 87 10 C87.66 8.35 88.32 6.7 89 5 C95.625 4 95.625 4 99 4 C99 5.32 99 6.64 99 8 C100.32 8 101.64 8 103 8 C103 10.97 103 13.94 103 17 C101.68 17 100.36 17 99 17 C99.495 21.455 99.495 21.455 100 26 C101.175625 26.2165625 101.175625 26.2165625 102.375 26.4375 C105 27 105 27 107 28 C107 24.04 107 20.08 107 16 C107.99 15.67 108.98 15.34 110 15 C108.02 14.67 106.04 14.34 104 14 C104 12.68 104 11.36 104 10 C104.99 9.67 105.98 9.34 107 9 C108.9451 6.08235 109.45276317 4.37462715 110 1 C111.98 1 113.96 1 116 1 C116.495 3.475 116.495 3.475 117 6 C116.34 6.99 115.68 7.98 115 9 C115.99 9.495 115.99 9.495 117 10 C117.495 21.385 117.495 21.385 118 33 C114.0831498 33.05390161 110.16703999 33.09362783 106.25 33.125 C105.13882813 33.14175781 104.02765625 33.15851563 102.8828125 33.17578125 C101.27792969 33.18544922 101.27792969 33.18544922 99.640625 33.1953125 C98.65610352 33.20578613 97.67158203 33.21625977 96.65722656 33.22705078 C94 33 94 33 90 31 C90.33 25.72 90.66 20.44 91 15 C89.68 15 88.36 15 87 15 C86.67 20.94 86.34 26.88 86 33 C73.67857143 33.26785714 73.67857143 33.26785714 70 31 C69.34 31.66 68.68 32.32 68 33 C62.06 33 56.12 33 50 33 C49.67 32.01 49.34 31.02 49 30 C48.38125 30.309375 47.7625 30.61875 47.125 30.9375 C43.65329452 32.67335274 41.61237754 33.16094467 37.6875 33.1875 C36.27017578 33.20876953 36.27017578 33.20876953 34.82421875 33.23046875 C31.79496458 32.9832682 29.70117143 32.38059873 27 31 C24.51638207 27.82648821 22.61924885 25.02511753 22 21 C21.0925 21.639375 20.185 22.27875 19.25 22.9375 C16.60778619 24.61428953 15.0101501 25.53689998 12 26 C12.99 26.99 13.98 27.98 15 29 C14.67 30.32 14.34 31.64 14 33 C9.38 33 4.76 33 0 33 C0 22.11 0 11.22 0 0 Z M83 3 C84 5 84 5 84 5 Z M10 7 C10 7.33 10 7.66 10 8 C11.65 8 13.3 8 15 8 C15 7.67 15 7.34 15 7 C13.35 7 11.7 7 10 7 Z M2 9 C2 14.94 2 20.88 2 27 C2.33 27 2.66 27 3 27 C3 21.06 3 15.12 3 9 C2.67 9 2.34 9 2 9 Z M8 9 C8 11.97 8 14.94 8 18 C8.33 18 8.66 18 9 18 C9 15.03 9 12.06 9 9 C8.67 9 8.34 9 8 9 Z M34 9 C34 9.33 34 9.66 34 10 C36.31 10 38.62 10 41 10 C41 9.67 41 9.34 41 9 C38.69 9 36.38 9 34 9 Z M58 9 C58 9.33 58 9.66 58 10 C59.98 10 61.96 10 64 10 C64 9.67 64 9.34 64 9 C62.02 9 60.04 9 58 9 Z M11 10 C10.67 12.64 10.34 15.28 10 18 C13.465 17.505 13.465 17.505 17 17 C17 14.37886292 16.68707555 12.49064888 16 10 C14.35 10 12.7 10 11 10 Z M24 10 C25 14 25 14 25 14 Z M34 15 C34 15.33 34 15.66 34 16 C36.31 16 38.62 16 41 16 C41 15.67 41 15.34 41 15 C38.69 15 36.38 15 34 15 Z M52 15 C53 19 53 19 53 19 Z M96 15 C96 18.3 96 21.6 96 25 C96.33 25 96.66 25 97 25 C97 21.7 97 18.4 97 15 C96.67 15 96.34 15 96 15 Z M26 16 C27 18 27 18 27 18 Z M58 16 C59 18 59 18 59 18 Z M32 17 C33 20 33 20 33 20 Z M35 17 C34.67 17.33 34.34 17.66 34 18 C34 20.64 34 23.28 34 26 C34.33 26.33 34.66 26.66 35 27 C36.65 27 38.3 27 40 27 C40.33 26.67 40.66 26.34 41 26 C41 23.36 41 20.72 41 18 C40.67 17.67 40.34 17.34 40 17 C38.35 17 36.7 17 35 17 Z M49 18 C49 20.64 49 23.28 49 26 C49.33 26 49.66 26 50 26 C50 23.36 50 20.72 50 18 C49.67 18 49.34 18 49 18 Z M25 19 C25 20.98 25 22.96 25 25 C25.33 25 25.66 25 26 25 C26 23.02 26 21.04 26 19 C25.67 19 25.34 19 25 19 Z M43 20 C44 24 44 24 44 24 Z M31 21 C32 23 32 23 32 23 Z M71 24 C71 25.65 71 27.3 71 29 C71.33 29 71.66 29 72 29 C72 27.35 72 25.7 72 24 C71.67 24 71.34 24 71 24 Z M8 25 C9 27 9 27 9 27 Z M60 26 C64 27 64 27 64 27 Z " fill="#000000" transform="translate(301,195)"/>
<path d="M0 0 C11.22 0 22.44 0 34 0 C31.95898617 10.20506916 28.06456771 19.97496065 24.265625 29.640625 C22.57456461 34.12924209 21.07677832 38.67358683 19.61132812 43.24023438 C18.10146423 47.89853577 18.10146423 47.89853577 17 49 C-12.37 49 -41.74 49 -72 49 C-72 33.49 -72 17.98 -72 2 C-69.91284845 4.08715155 -69.29492505 5.40660462 -68.23046875 8.11328125 C-67.7367981 9.35803223 -67.7367981 9.35803223 -67.2331543 10.62792969 C-66.88808838 11.51383789 -66.54302246 12.39974609 -66.1875 13.3125 C-65.83147705 14.21516602 -65.4754541 15.11783203 -65.10864258 16.04785156 C-64.06626077 18.69620526 -63.03153589 21.34740547 -62 24 C-61.731875 24.68819824 -61.46375 25.37639648 -61.1875 26.08544922 C-59.77502604 29.71738803 -58.38553423 33.35772441 -57 37 C-56.6803125 37.81210938 -56.360625 38.62421875 -56.03125 39.4609375 C-54.86166169 42.46071493 -54 44.74885816 -54 48 C-42.12 48 -30.24 48 -18 48 C-17.67 46.35 -17.34 44.7 -17 43 C-14.74209858 35.50546337 -11.97097575 28.23519976 -9 21 C-8.3537649 19.35432438 -7.70793525 17.70848949 -7.0625 16.0625 C-4.8557421 10.64591243 -2.42027684 5.32460904 0 0 Z " fill="#742E81" transform="translate(374,122)"/>
<path d="M0 0 C2.31 2.64 4.62 5.28 7 8 C7.721875 7.071875 8.44375 6.14375 9.1875 5.1875 C12.31937209 1.46620254 15.00872726 -0.70342746 19.9375 -1.4375 C23.77223467 -0.88968076 25.95018019 0.67632777 29 3 C29.99 2.67 30.98 2.34 32 2 C32.33 1.34 32.66 0.68 33 0 C36.63 0 40.26 0 44 0 C44 0.66 44 1.32 44 2 C44.99 2.495 44.99 2.495 46 3 C46 2.01 46 1.02 46 0 C49.63 0 53.26 0 57 0 C57.495 0.99 57.495 0.99 58 2 C58.33 2 58.66 2 59 2 C59 4.97 59 7.94 59 11 C58.01 11 57.02 11 56 11 C54.02 15.62 52.04 20.24 50 25 C46.7 25 43.4 25 40 25 C37.525 19.06 37.525 19.06 35 13 C34.01 15.97 33.02 18.94 32 22 C25.93333311 25.03333345 21.8060036 25.5884153 15 25 C11.8125 23.5 11.8125 23.5 10 22 C9.67 22.99 9.34 23.98 9 25 C3.72 25 -1.56 25 -7 25 C-7 23.35 -7 21.7 -7 20 C-7.33 21.65 -7.66 23.3 -8 25 C-12.29 25 -16.58 25 -21 25 C-21 23.68 -21 22.36 -21 21 C-20.34 20.67 -19.68 20.34 -19 20 C-19 15.71 -19 11.42 -19 7 C-19.99 6.67 -20.98 6.34 -22 6 C-22 4.68 -22 3.36 -22 2 C-21.34 2 -20.68 2 -20 2 C-19.67 1.34 -19.34 0.68 -19 0 C-15.66666667 0 -12.33333333 0 -9 0 C-5.93109813 -1.53445094 -3.29905734 -0.54984289 0 0 Z M-7 1 C-7 1.33 -7 1.66 -7 2 C-5.35 2 -3.7 2 -2 2 C-2 1.67 -2 1.34 -2 1 C-3.65 1 -5.3 1 -7 1 Z M17 1 C17 1.33 17 1.66 17 2 C18.98 2 20.96 2 23 2 C23 1.67 23 1.34 23 1 C21.02 1 19.04 1 17 1 Z M-7 6 C-6.67 6.66 -6.34 7.32 -6 8 C-5.67 7.34 -5.34 6.68 -5 6 C-5.66 6 -6.32 6 -7 6 Z M3 6 C4 9 4 9 4 9 Z M43 6 C42.01 6.66 41.02 7.32 40 8 C40.99 8.33 41.98 8.66 43 9 C43.99 10.485 43.99 10.485 45 12 C45.66 10.35 46.32 8.7 47 7 C45.68 6.67 44.36 6.34 43 6 Z M-3 7 C-2 10 -2 10 -2 10 Z M9 7 C10 9 10 9 10 9 Z M16 7 C16 7.33 16 7.66 16 8 C18.64 8 21.28 8 24 8 C24 7.67 24 7.34 24 7 C21.36 7 18.72 7 16 7 Z M48 7 C49 9 49 9 49 9 Z M54 7 C54.33 7.66 54.66 8.32 55 9 C55.33 8.34 55.66 7.68 56 7 C55.34 7 54.68 7 54 7 Z M-6 8 C-6.99 8.99 -7.98 9.98 -9 11 C-9 13.64 -9 16.28 -9 19 C-7.35 19 -5.7 19 -4 19 C-4 15.37 -4 11.74 -4 8 C-4.66 8 -5.32 8 -6 8 Z M15 8 C16 10 16 10 16 10 Z M35 8 C36 10 36 10 36 10 Z M-11 9 C-10 11 -10 11 -10 11 Z M17 9 C15.9910966 13.23646767 15.9910966 13.23646767 16.9375 17.375 C17.288125 17.91125 17.63875 18.4475 18 19 C19.98 18.67 21.96 18.34 24 18 C24.26932521 13.34947128 24.26932521 13.34947128 23 9 C21.02 9 19.04 9 17 9 Z M31 9 C32 11 32 11 32 11 Z M8 10 C8 12.64 8 15.28 8 18 C8.33 18 8.66 18 9 18 C9 15.36 9 12.72 9 10 C8.67 10 8.34 10 8 10 Z M25 10 C26 13 26 13 26 13 Z M53 10 C54 12 54 12 54 12 Z M14 11 C14 12.98 14 14.96 14 17 C14.33 17 14.66 17 15 17 C15 15.02 15 13.04 15 11 C14.67 11 14.34 11 14 11 Z M32 12 C33 16 33 16 33 16 Z M6 17 C6 17.99 6 18.98 6 20 C5.01 20.33 4.02 20.66 3 21 C4.65 21 6.3 21 8 21 C7.34 19.68 6.68 18.36 6 17 Z M31 17 C32 19 32 19 32 19 Z M-5 20 C-1 21 -1 21 -1 21 Z M40 20 C41 22 41 22 41 22 Z M41 22 C42 24 42 24 42 24 Z " fill="#000000" transform="translate(542,203)"/>
<path d="M0 0 C21.78 0 43.56 0 66 0 C66 40.26 66 80.52 66 122 C84.48 122 102.96 122 122 122 C122.33 121.34 122.66 120.68 123 120 C123 120.99 123 121.98 123 123 C142.47 123 161.94 123 182 123 C181.67 123.66 181.34 124.32 181 125 C142.32364631 125.81049448 103.68457811 126.14369135 65 126 C64.01 125.01 63.02 124.02 62 123 C62 83.4 62 43.8 62 3 C41.54 3 21.08 3 0 3 C0 2.01 0 1.02 0 0 Z " fill="#6F89B4" transform="translate(0,47)"/>
<path d="M0 0 C5.02071744 1.5317443 8.01670787 4.47327692 11.6875 8.125 C12.6875 16.125 12.6875 16.125 10.6875 19.125 C11.3475 19.125 12.0075 19.125 12.6875 19.125 C12.1925 21.6 12.1925 21.6 11.6875 24.125 C7.89697276 25.87393812 4.85440915 26.42155519 0.6875 26.4375 C-0.323125 26.45425781 -1.33375 26.47101563 -2.375 26.48828125 C-5.74202111 26.07188103 -7.54653446 25.04529026 -10.3125 23.125 C-11.3025 22.465 -12.2925 21.805 -13.3125 21.125 C-13.9725 19.475 -14.6325 17.825 -15.3125 16.125 C-16.9625 19.425 -18.6125 22.725 -20.3125 26.125 C-23.6125 26.125 -26.9125 26.125 -30.3125 26.125 C-31.10691072 24.25116097 -31.89789974 22.37587114 -32.6875 20.5 C-33.12835938 19.45585937 -33.56921875 18.41171875 -34.0234375 17.3359375 C-36.30711793 11.64749717 -37.55977737 7.30693426 -37.3125 1.125 C-33.6825 1.125 -30.0525 1.125 -26.3125 1.125 C-26.36132812 4.15234375 -26.36132812 4.15234375 -26.41015625 7.1796875 C-26.43899242 9.20685404 -26.43899242 9.20685404 -25.3125 11.125 C-23.9925 10.465 -22.6725 9.805 -21.3125 9.125 C-22.6325 8.465 -23.9525 7.805 -25.3125 7.125 C-24.80646008 4.95625748 -24.31266187 3.12532373 -23.3125 1.125 C-20.0125 1.125 -16.7125 1.125 -13.3125 1.125 C-12.9825 1.785 -12.6525 2.445 -12.3125 3.125 C-8.39974445 3.49823827 -8.39974445 3.49823827 -6 1.5625 C-3.3125 0.125 -3.3125 0.125 0 0 Z M-3.3125 2.125 C-3.3125 2.455 -3.3125 2.785 -3.3125 3.125 C-1.3325 3.125 0.6475 3.125 2.6875 3.125 C2.6875 2.795 2.6875 2.465 2.6875 2.125 C0.7075 2.125 -1.2725 2.125 -3.3125 2.125 Z M-11.3125 8.125 C-10.3125 10.125 -10.3125 10.125 -10.3125 10.125 Z M-4.3125 8.125 C-4.3125 8.455 -4.3125 8.785 -4.3125 9.125 C-2.0025 9.125 0.3075 9.125 2.6875 9.125 C2.6875 8.795 2.6875 8.465 2.6875 8.125 C0.3775 8.125 -1.9325 8.125 -4.3125 8.125 Z M-34.3125 10.125 C-33.3125 12.125 -33.3125 12.125 -33.3125 12.125 Z M-28.3125 10.125 C-27.3125 12.125 -27.3125 12.125 -27.3125 12.125 Z M9.6875 10.125 C9.6875 12.435 9.6875 14.745 9.6875 17.125 C10.0175 17.125 10.3475 17.125 10.6875 17.125 C10.6875 14.815 10.6875 12.505 10.6875 10.125 C10.3575 10.125 10.0275 10.125 9.6875 10.125 Z M-12.3125 11.125 C-11.3125 13.125 -11.3125 13.125 -11.3125 13.125 Z M3.6875 10.125 C0.3875 10.455 -2.9125 10.785 -6.3125 11.125 C-6.3125 11.455 -6.3125 11.785 -6.3125 12.125 C-2.6825 12.125 0.9475 12.125 4.6875 12.125 C4.3575 11.465 4.0275 10.805 3.6875 10.125 Z M-24.3125 14.125 C-23.3125 16.125 -23.3125 16.125 -23.3125 16.125 Z M-12.3125 17.125 C-11.3125 19.125 -11.3125 19.125 -11.3125 19.125 Z M-2.3125 19.125 C-2.3125 19.455 -2.3125 19.785 -2.3125 20.125 C-0.3325 20.125 1.6475 20.125 3.6875 20.125 C3.6875 19.795 3.6875 19.465 3.6875 19.125 C1.7075 19.125 -0.2725 19.125 -2.3125 19.125 Z M9.6875 19.125 C10.6875 23.125 10.6875 23.125 10.6875 23.125 Z M-29.3125 22.125 C-28.3125 24.125 -28.3125 24.125 -28.3125 24.125 Z " fill="#000000" transform="translate(456.3125,201.875)"/>
<path d="M0 0 C2.97 0 5.94 0 9 0 C10.07349791 4.29399165 9.79682816 5.19495213 8 9 C8.66 9 9.32 9 10 9 C10 14.94 10 20.88 10 27 C10.33 26.67 10.66 26.34 11 26 C10.95359375 25.41992188 10.9071875 24.83984375 10.859375 24.2421875 C10.59740443 18.57239594 11.15977854 15.46296007 15 11 C20.47954866 6.17277856 20.47954866 6.17277856 24.75 5.6875 C28.79140094 6.07609624 30.78929762 7.59197321 34 10 C34.66 10.33 35.32 10.66 36 11 C36.66 10.67 37.32 10.34 38 10 C38.84681133 15.08086796 39.09038099 19.84828377 39 25 C34.47212067 29.8632778 31.23510024 32.17532831 24.5 32.4375 C20.58980492 32.34779242 19.21484528 32.13480488 15.8125 30 C15.214375 29.34 14.61625 28.68 14 28 C13.34 29.32 12.68 30.64 12 32 C7.71 32 3.42 32 -1 32 C-0.67 26.39 -0.34 20.78 0 15 C-0.33 14.67 -0.66 14.34 -1 14 C-1 1 -1 1 0 0 Z M22 8 C22 8.33 22 8.66 22 9 C23.98 9 25.96 9 28 9 C28 8.67 28 8.34 28 8 C26.02 8 24.04 8 22 8 Z M7 11 C8 14 8 14 8 14 Z M21 14 C21 14.33 21 14.66 21 15 C23.64 15 26.28 15 29 15 C29 14.67 29 14.34 29 14 C26.36 14 23.72 14 21 14 Z M35 14 C36 16 36 16 36 16 Z M29 15 C30 17 30 17 30 17 Z M13 16 C14 18 14 18 14 18 Z M22 16 C20.26129589 22.61430493 20.26129589 22.61430493 23 26 C24.98 25.67 26.96 25.34 29 25 C28.67 22.03 28.34 19.06 28 16 C26.02 16 24.04 16 22 16 Z M19 17 C20 19 20 19 20 19 Z M30 17 C30 18.98 30 20.96 30 23 C30.33 23 30.66 23 31 23 C31 21.02 31 19.04 31 17 C30.67 17 30.34 17 30 17 Z M36 17 C37 19 37 19 37 19 Z M12 20 C13 22 13 22 13 22 Z M36 23 C37 25 37 25 37 25 Z M13 24 C14 26 14 26 14 26 Z " fill="#000000" transform="translate(645,196)"/>
<path d="M0 0 C15.84 0 31.68 0 48 0 C47 2 47 2 44 4 C30.8 4 17.6 4 4 4 C4 37.99 4 71.98 4 107 C3.01 107.99 3.01 107.99 2 109 C2 74.35 2 39.7 2 4 C1.34 4 0.68 4 0 4 C0 41.29 0 78.58 0 117 C-0.66 117 -1.32 117 -2 117 C-2 2 -2 2 0 0 Z " fill="#467DDA" transform="translate(122,46)"/>
<path d="M0 0 C1.65 0 3.3 0 5 0 C5 35.97 5 71.94 5 109 C3.515 109.495 3.515 109.495 2 110 C1.67 110.99 1.34 111.98 1 113 C0.67 112.67 0.34 112.34 0 112 C0 75.04 0 38.08 0 0 Z " fill="#A2A62B" transform="translate(532,0)"/>
<path d="M0 0 C2.08715155 2.08715155 2.70507495 3.40660462 3.76953125 6.11328125 C4.2632019 7.35803223 4.2632019 7.35803223 4.7668457 8.62792969 C5.11191162 9.51383789 5.45697754 10.39974609 5.8125 11.3125 C6.16852295 12.21516602 6.5245459 13.11783203 6.89135742 14.04785156 C7.93373923 16.69620526 8.96846411 19.34740547 10 22 C10.268125 22.68819824 10.53625 23.37639648 10.8125 24.08544922 C12.22497396 27.71738803 13.61446577 31.35772441 15 35 C15.3196875 35.81210938 15.639375 36.62421875 15.96875 37.4609375 C17.13833831 40.46071493 18 42.74885816 18 46 C41.43 46 64.86 46 89 46 C89 46.33 89 46.66 89 47 C59.63 47 30.26 47 0 47 C0 31.49 0 15.98 0 0 Z " fill="#703374" transform="translate(302,124)"/>
<path d="M0 0 C6 7 6 7 6 25 C-2.58 25 -11.16 25 -20 25 C-19.67 19.39 -19.34 13.78 -19 8 C-18.34 7.67 -17.68 7.34 -17 7 C-17.99 7 -18.98 7 -20 7 C-20 4.69 -20 2.38 -20 0 C-16.66666667 0 -13.33333333 0 -10 0 C-6.30581799 -1.231394 -3.7943739 -0.64432764 0 0 Z M-8 1 C-8 1.33 -8 1.66 -8 2 C-6.02 2 -4.04 2 -2 2 C-2 1.67 -2 1.34 -2 1 C-3.98 1 -5.96 1 -8 1 Z M-7 6 C-6.67 6.99 -6.34 7.98 -6 9 C-6.99 9 -7.98 9 -9 9 C-9 12.3 -9 15.6 -9 19 C-7.515 19.99 -7.515 19.99 -6 21 C-4.68 20.67 -3.36 20.34 -2 20 C-2.99 20 -3.98 20 -5 20 C-4.67 19.34 -4.34 18.68 -4 18 C-3.76666713 11.91483944 -3.76666713 11.91483944 -5 6 C-5.66 6 -6.32 6 -7 6 Z M3 7 C3 10.96 3 14.92 3 19 C3.33 19 3.66 19 4 19 C4 15.04 4 11.08 4 7 C3.67 7 3.34 7 3 7 Z M-11 8 C-10 10 -10 10 -10 10 Z M-3 8 C-3 11.63 -3 15.26 -3 19 C-2.67 19 -2.34 19 -2 19 C-2 15.37 -2 11.74 -2 8 C-2.33 8 -2.66 8 -3 8 Z M-12 13 C-12 14.65 -12 16.3 -12 18 C-11.67 18 -11.34 18 -11 18 C-11 16.35 -11 14.7 -11 13 C-11.33 13 -11.66 13 -12 13 Z M-12 20 C-8 21 -8 21 -8 21 Z " fill="#000000" transform="translate(514,203)"/>
<path d="M0 0 C2.6875 2 2.6875 2 5 4 C5.99 4 6.98 4 8 4 C8 11.26 8 18.52 8 26 C4.66666667 26 1.33333333 26 -2 26 C-2.76054688 26.02320313 -3.52109375 26.04640625 -4.3046875 26.0703125 C-12.78005115 26.25063939 -12.78005115 26.25063939 -17 24 C-17.33 22.35 -17.66 20.7 -18 19 C-15.51047079 16.33264727 -13.36591866 14.44253657 -10 13 C-11.32 12.67 -12.64 12.34 -14 12 C-14 8.37 -14 4.74 -14 1 C-13.05125 1.020625 -12.1025 1.04125 -11.125 1.0625 C-7.08989399 0.98179788 -4.20711248 -0.41246201 0 0 Z M-6 2 C-6 2.33 -6 2.66 -6 3 C-4.02 3 -2.04 3 0 3 C0 2.67 0 2.34 0 2 C-1.98 2 -3.96 2 -6 2 Z M-5 7 C-4.01 7.99 -3.02 8.98 -2 10 C-2 9.01 -2 8.02 -2 7 C-2.99 7 -3.98 7 -5 7 Z M5 8 C5 11.96 5 15.92 5 20 C5.33 20 5.66 20 6 20 C6 16.04 6 12.08 6 8 C5.67 8 5.34 8 5 8 Z M-5 10 C-5 10.66 -5 11.32 -5 12 C-6.32 12.33 -7.64 12.66 -9 13 C-6.36 12.67 -3.72 12.34 -1 12 C-2.32 11.34 -3.64 10.68 -5 10 Z M-16 19 C-15 22 -15 22 -15 22 Z " fill="#000000" transform="translate(616,202)"/>
<path d="M0 0 C2 1 2 1 2.8894043 3.32958984 C5.18827657 9.33122585 7.51495849 15.31890586 9.89453125 21.2890625 C10.37470703 22.49691406 10.85488281 23.70476562 11.34960938 24.94921875 C12.08956987 26.80850535 12.82965524 28.66774803 13.57495117 30.52490234 C14.31117442 32.36107959 15.04046559 34.20003156 15.76953125 36.0390625 C16.19854736 37.11365723 16.62756348 38.18825195 17.06958008 39.29541016 C18 42 18 42 18 45 C12.72 45 7.44 45 2 45 C2.33 45.33 2.66 45.66 3 46 C3 46.33 3 46.66 3 47 C-11.85 47 -26.7 47 -42 47 C-42 46.67 -42 46.34 -42 46 C-28.14 46 -14.28 46 0 46 C0 30.82 0 15.64 0 0 Z " fill="#0D693F" transform="translate(535,124)"/>
<path d="M0 0 C0.33 0 0.66 0 1 0 C1 15.51 1 31.02 1 47 C-4.94 47 -10.88 47 -17 47 C-16.22937897 41.60565277 -15.25688652 37.56352377 -13.1875 32.6875 C-12.91615234 32.02943359 -12.64480469 31.37136719 -12.36523438 30.69335938 C-11.82507385 29.38337386 -11.28202891 28.07457328 -10.73583984 26.76708984 C-9.80037343 24.5206048 -8.89787697 22.26174073 -8 20 C-5.33333333 13.33333333 -2.66666667 6.66666667 0 0 Z " fill="#086839" transform="translate(188,0)"/>
<path d="M0 0 C2.375 2.0625 2.375 2.0625 4 4 C4 4.66 4 5.32 4 6 C4.13389994 7.98000981 4.28162597 9.95909879 4.4375 11.9375 C4.51871094 12.99839844 4.59992187 14.05929688 4.68359375 15.15234375 C4.90719426 18.07079791 4.90719426 18.07079791 6 21 C6 22.32 6 23.64 6 25 C-2.25 25 -10.5 25 -19 25 C-19 16.75 -19 8.5 -19 0 C-15.66666667 0 -12.33333333 0 -9 0 C-5.41563853 -1.19478716 -3.63093708 -0.96330984 0 0 Z M-7 1 C-7 1.33 -7 1.66 -7 2 C-5.02 2 -3.04 2 -1 2 C-1 1.67 -1 1.34 -1 1 C-2.98 1 -4.96 1 -7 1 Z M-6 6 C-5.67 6.99 -5.34 7.98 -5 9 C-6.32 9.33 -7.64 9.66 -9 10 C-9 12.64 -9 15.28 -9 18 C-8.67 18.33 -8.34 18.66 -8 19 C-8.99 19.66 -9.98 20.32 -11 21 C-8.36 21 -5.72 21 -3 21 C-3.33 16.05 -3.66 11.1 -4 6 C-4.66 6 -5.32 6 -6 6 Z M-17 7 C-17 10.96 -17 14.92 -17 19 C-16.67 19 -16.34 19 -16 19 C-16 15.04 -16 11.08 -16 7 C-16.33 7 -16.66 7 -17 7 Z M-2 8 C-2 11.63 -2 15.26 -2 19 C-1.67 19 -1.34 19 -1 19 C-1 15.37 -1 11.74 -1 8 C-1.33 8 -1.66 8 -2 8 Z M-11 10 C-11 12.97 -11 15.94 -11 19 C-10.67 19 -10.34 19 -10 19 C-10 16.03 -10 13.06 -10 10 C-10.33 10 -10.66 10 -11 10 Z " fill="#000000" transform="translate(703,203)"/>
<path d="M0 0 C2.97 0 5.94 0 9 0 C9.33 0.99 9.66 1.98 10 3 C11.32 3.33 12.64 3.66 14 4 C14 6.31 14 8.62 14 11 C11.69 11 9.38 11 7 11 C7.33 11.33 7.66 11.66 8 12 C9.65 12 11.3 12 13 12 C12.01 12.33 11.02 12.66 10 13 C10 15.97 10 18.94 10 22 C11.98 22.33 13.96 22.66 16 23 C16 24.98 16 26.96 16 29 C14.25034642 29.05429959 12.50020213 29.09292823 10.75 29.125 C9.77546875 29.14820313 8.8009375 29.17140625 7.796875 29.1953125 C4.9803502 28.99862781 3.39050964 28.44568916 1 27 C0.01 27.66 -0.98 28.32 -2 29 C-2 27.68 -2 26.36 -2 25 C-1.34 25 -0.68 25 0 25 C-0.144375 24.154375 -0.28875 23.30875 -0.4375 22.4375 C-3.09589041 6.19178082 -3.09589041 6.19178082 0 0 Z M1 11 C1 15.62 1 20.24 1 25 C1.33 25 1.66 25 2 25 C2 20.38 2 15.76 2 11 C1.67 11 1.34 11 1 11 Z M8 24 C12 25 12 25 12 25 Z M14 24 C15 28 15 28 15 28 Z " fill="#000000" transform="translate(627,199)"/>
<path d="M0 0 C0.33 0 0.66 0 1 0 C1 2.97 1 5.94 1 9 C1.99443115 8.92273682 2.9888623 8.84547363 4.01342773 8.76586914 C15.40549301 7.9502913 26.65487657 8.05334229 38.0625 8.4375 C39.81573434 8.49092355 41.56898973 8.54366116 43.32226562 8.59570312 C47.54846023 8.72260294 51.77426539 8.85863999 56 9 C56.495 10.485 56.495 10.485 57 12 C56.67 12.33 56.34 12.66 56 13 C23.33 13 -9.34 13 -43 13 C-43.33 12.34 -43.66 11.68 -44 11 C-29.48 10.67 -14.96 10.34 0 10 C0 6.7 0 3.4 0 0 Z " fill="#71AE76" transform="translate(536,160)"/>
<path d="M0 0 C3.3 0 6.6 0 10 0 C11 4 11 4 8 9 C8.99 9 9.98 9 11 9 C11 16.59 11 24.18 11 32 C7.37 32 3.74 32 0 32 C0 26.39 0 20.78 0 15 C0.99 14.67 1.98 14.34 3 14 C2.01 14 1.02 14 0 14 C0 9.33333333 0 4.66666667 0 0 Z M8 1 C9 4 9 4 9 4 Z M1 2 C2 4 2 4 2 4 Z " fill="#000000" transform="translate(480,196)"/>
<path d="M0 0 C0.66 0 1.32 0 2 0 C2 39.27 2 78.54 2 119 C5.3 119 8.6 119 12 119 C12.66 117.68 13.32 116.36 14 115 C13.67 116.98 13.34 118.96 13 121 C8.71 121 4.42 121 0 121 C0 81.07 0 41.14 0 0 Z " fill="#F95685" transform="translate(360,0)"/>
<path d="M0 0 C24.255 0.495 24.255 0.495 49 1 C49 2.32 49 3.64 49 5 C33.49 5 17.98 5 2 5 C1.34 3.35 0.68 1.7 0 0 Z " fill="#A2A581" transform="translate(660,168)"/>
<path d="M0 0 C12.54 0 25.08 0 38 0 C38.495 1.485 38.495 1.485 39 3 C26.13 3 13.26 3 0 3 C0 2.01 0 1.02 0 0 Z " fill="#A3A886" transform="translate(554,169)"/>
<path d="M0 0 C0.99 1.32 1.98 2.64 3 4 C2.67 5.65 2.34 7.3 2 9 C-8.56 9 -19.12 9 -30 9 C-29.34 8.01 -28.68 7.02 -28 6 C-18.76 5.67 -9.52 5.34 0 5 C0 3.35 0 1.7 0 0 Z " fill="#39638F" transform="translate(469,96)"/>
<path d="M0 0 C8.14137214 6.65488565 8.14137214 6.65488565 11 11 C11 12.32 11 13.64 11 15 C11.66 15 12.32 15 13 15 C13.433125 15.763125 13.86625 16.52625 14.3125 17.3125 C15.73686785 19.58093768 17.03260097 21.2199723 19 23 C18.67 23.66 18.34 24.32 18 25 C13.07279828 20.20758495 8.4671749 15.22190308 4 10 C3.41476562 9.319375 2.82953125 8.63875 2.2265625 7.9375 C0.81499916 6.29398963 -0.59290162 4.64733469 -2 3 C-1.34 3 -0.68 3 0 3 C0 2.01 0 1.02 0 0 Z " fill="#949F2F" transform="translate(642,146)"/>
<path d="M0 0 C2.23793576 3.35690365 3.65050338 6.8339284 5.125 10.5625 C5.40214844 11.24763672 5.67929687 11.93277344 5.96484375 12.63867188 C8 17.7466133 8 17.7466133 8 20 C7.01 20.33 6.02 20.66 5 21 C1.5179788 18.67865253 1.1672533 17.91863608 0 14 C-1.65369128 3.30738255 -1.65369128 3.30738255 0 0 Z M1 7 C2 9 2 9 2 9 Z M2 9 C3 11 3 11 3 11 Z M3 12 C4 14 4 14 4 14 Z " fill="#4976A5" transform="translate(500,25)"/>
<path d="M0 0 C0.66 1.32 1.32 2.64 2 4 C1.01 5.485 1.01 5.485 0 7 C-0.39387788 9.32387947 -0.73486085 11.65793749 -1 14 C-1.66 14 -2.32 14 -3 14 C-2.67 15.98 -2.34 17.96 -2 20 C-6.75 22 -6.75 22 -9 22 C-6.66062389 14.33204498 -3.45231194 7.22862726 0 0 Z M-6 18 C-5 20 -5 20 -5 20 Z " fill="#4C7FA6" transform="translate(386,83)"/>
<path d="M0 0 C0.66 0 1.32 0 2 0 C2 0.99 2 1.98 2 3 C2.66 3 3.32 3 4 3 C4 3.99 4 4.98 4 6 C3.01 6 2.02 6 1 6 C1 7.32 1 8.64 1 10 C0.01 10.495 0.01 10.495 -1 11 C-2.03307106 12.77211082 -2.03307106 12.77211082 -3 15 C-3.42539062 15.92296875 -3.85078125 16.8459375 -4.2890625 17.796875 C-4.95035156 19.25867188 -4.95035156 19.25867188 -5.625 20.75 C-6.07101562 21.73484375 -6.51703125 22.7196875 -6.9765625 23.734375 C-7.31429688 24.48203125 -7.65203125 25.2296875 -8 26 C-9.35375421 22.32498858 -8.63213623 20.33873193 -7.12890625 16.796875 C-6.71962891 15.8171875 -6.31035156 14.8375 -5.88867188 13.828125 C-5.45103516 12.81234375 -5.01339844 11.7965625 -4.5625 10.75 C-3.9118457 9.203125 -3.9118457 9.203125 -3.24804688 7.625 C-2.17538013 5.07888993 -1.09241991 2.53768289 0 0 Z M0 4 C1 6 1 6 1 6 Z " fill="#4479C0" transform="translate(400,46)"/>
<path d="M0 0 C3.88397689 1.55002747 6.02979619 4.00476621 8.75 7.125 C9.94882812 8.49011719 9.94882812 8.49011719 11.171875 9.8828125 C12.07679688 10.93082031 12.07679688 10.93082031 13 12 C13.66 12 14.32 12 15 12 C15.33 13.98 15.66 15.96 16 18 C10.03648545 16.72210402 7.51582826 13.66283606 4 9 C4 8.01 4 7.02 4 6 C2.72245446 3.9639118 1.39300182 1.95890881 0 0 Z " fill="#8D9C2C" transform="translate(635,58)"/>
<path d="M0 0 C0.66 0 1.32 0 2 0 C1.67 1.65 1.34 3.3 1 5 C8.92 5 16.84 5 25 5 C25.33 5.66 25.66 6.32 26 7 C16.76 7 7.52 7 -2 7 C-1.34 4.69 -0.68 2.38 0 0 Z " fill="#48ABBB" transform="translate(443,95)"/>
<path d="M0 0 C0.66 0 1.32 0 2 0 C3.20571943 2.90946313 4.38628225 5.82849916 5.5625 8.75 C5.90474609 9.575 6.24699219 10.4 6.59960938 11.25 C6.91865234 12.04921875 7.23769531 12.8484375 7.56640625 13.671875 C7.86490479 14.4050293 8.16340332 15.13818359 8.47094727 15.89355469 C9.083136 18.3310094 8.73949579 19.63262087 8 22 C8.08816364 24.1421654 8.08816364 24.1421654 8.4375 26.25 C8.623125 27.4875 8.80875 28.725 9 30 C6.65085508 27.65085508 6.26859643 26.04320554 5.375 22.875 C5.11460937 21.96492188 4.85421875 21.05484375 4.5859375 20.1171875 C4.39257812 19.41851562 4.19921875 18.71984375 4 18 C4.66 17.67 5.32 17.34 6 17 C4.13236819 11.27789404 2.14710968 5.62338249 0 0 Z " fill="#448BCB" transform="translate(519,77)"/>
<path d="M0 0 C2.80135827 2.80135827 3.81062644 6.17431411 5.1875 9.8125 C5.47302734 10.52470703 5.75855469 11.23691406 6.05273438 11.97070312 C7.58933406 16.012222 8.45188225 18.72827707 7 23 C5.68 22.34 4.36 21.68 3 21 C2.67 19.35 2.34 17.7 2 16 C2.99 16 3.98 16 5 16 C4.71125 15.45730469 4.4225 14.91460937 4.125 14.35546875 C3.75375 13.64003906 3.3825 12.92460938 3 12.1875 C2.443125 11.12595703 2.443125 11.12595703 1.875 10.04296875 C1 8 1 8 1 5 C0.34 5 -0.32 5 -1 5 C-0.67 3.35 -0.34 1.7 0 0 Z " fill="#87A02B" transform="translate(286,75)"/>
<path d="M0 0 C2 3 2 3 4 11 C-9.86 10.505 -9.86 10.505 -24 10 C-24 9.67 -24 9.34 -24 9 C-16.74 8.67 -9.48 8.34 -2 8 C-2.33 6.35 -2.66 4.7 -3 3 C-2.01 3.99 -1.02 4.98 0 6 C0 4.02 0 2.04 0 0 Z " fill="#A5B038" transform="translate(234,91)"/>
<path d="M0 0 C0.66 0 1.32 0 2 0 C2.84454356 3.37817425 3.10844919 5.67465243 2 9 C3.32 8.67 4.64 8.34 6 8 C7.28571429 15.42857143 7.28571429 15.42857143 6 19 C5.34 17.35 4.68 15.7 4 14 C3.01 14.495 3.01 14.495 2 15 C0.68 10.71 -0.64 6.42 -2 2 C-1.34 1.67 -0.68 1.34 0 1 C0 0.67 0 0.34 0 0 Z M3 10 C4 12 4 12 4 12 Z " fill="#728232" transform="translate(228,80)"/>
<path d="M0 0 C1.98 0 3.96 0 6 0 C6.66 2.31 7.32 4.62 8 7 C7.34 7 6.68 7 6 7 C5.67 7.99 5.34 8.98 5 10 C5.66 10 6.32 10 7 10 C7.66 12.31 8.32 14.62 9 17 C8.34 17.33 7.68 17.66 7 18 C4.69 12.06 2.38 6.12 0 0 Z " fill="#4D88C2" transform="translate(485,0)"/>
<path d="M0 0 C0.33 0 0.66 0 1 0 C1 12.54 1 25.08 1 38 C0.67 38 0.34 38 0 38 C0 28.1 0 18.2 0 8 C-0.99 8.33 -1.98 8.66 -3 9 C-2.01 6.03 -1.02 3.06 0 0 Z " fill="#006B3E" transform="translate(186,5)"/>
<path d="M0 0 C3.05965274 1.34417987 4.9347003 2.76082547 7.09375 5.30078125 C7.64933594 5.94853516 8.20492187 6.59628906 8.77734375 7.26367188 C9.34582031 7.93978516 9.91429687 8.61589844 10.5 9.3125 C11.06847656 9.97701172 11.63695312 10.64152344 12.22265625 11.32617188 C15.21334157 14.8338086 18.14411738 18.38114874 21 22 C14.92742114 19.18392497 10.02170824 15.04341648 7 9 C6.34 9 5.68 9 5 9 C4.54625 8.071875 4.0925 7.14375 3.625 6.1875 C2.0578367 2.96078611 2.0578367 2.96078611 0 0 Z " fill="#5F7D2E" transform="translate(584,0)"/>
<path d="M0 0 C4.60388182 3.75827087 8.58816922 7.62663971 12.421875 12.16796875 C13.88104785 13.86190951 15.39822318 15.44164484 17 17 C16.67 17.99 16.34 18.98 16 20 C15.4225 19.21625 14.845 18.4325 14.25 17.625 C12.17102363 15.19952756 10.90959667 14.14305583 8 13 C7.67 12.01 7.34 11.02 7 10 C5.68 9.34 4.36 8.68 3 8 C3.66 8 4.32 8 5 8 C4.38125 7.401875 3.7625 6.80375 3.125 6.1875 C1 4 1 4 -1 1 C-0.67 0.67 -0.34 0.34 0 0 Z " fill="#7B812B" transform="translate(619,39)"/>
<path d="M0 0 C1 4 1 4 -3 11 C-3.99 11 -4.98 11 -6 11 C-6.66 12.32 -7.32 13.64 -8 15 C-8.66 14.67 -9.32 14.34 -10 14 C-7.67501323 7.72253573 -5.51056176 3.88244124 0 0 Z " fill="#99A33C" transform="translate(157,82)"/>
<path d="M0 0 C0.66 0 1.32 0 2 0 C3.32 3.3 4.64 6.6 6 10 C5.01 10.33 4.02 10.66 3 11 C2.34 11.66 1.68 12.32 1 13 C0.01 10.03 -0.98 7.06 -2 4 C-1.34 3.34 -0.68 2.68 0 2 C0 1.34 0 0.68 0 0 Z " fill="#6D752E" transform="translate(277,54)"/>
<path d="M0 0 C0.65043719 1.72744016 1.29514844 3.4570369 1.9375 5.1875 C2.47697266 6.63189453 2.47697266 6.63189453 3.02734375 8.10546875 C3.91156562 10.7368278 4.52568586 13.26894908 5 16 C4.34 15.67 3.68 15.34 3 15 C2.34 12.03 1.68 9.06 1 6 C0.34 6 -0.32 6 -1 6 C-1 6.66 -1 7.32 -1 8 C-1.66 8 -2.32 8 -3 8 C-3.66 5.69 -4.32 3.38 -5 1 C-2 0 -2 0 0 0 Z M-2 4 C-1 6 -1 6 -1 6 Z " fill="#949D3D" transform="translate(255,150)"/>
<path d="M0 0 C0.99 0.495 0.99 0.495 2 1 C2 1.99 2 2.98 2 4 C2.99 3.67 3.98 3.34 5 3 C5.99 4.485 5.99 4.485 7 6 C6.34 8.97 5.68 11.94 5 15 C4.34 14.67 3.68 14.34 3 14 C2.49528803 12.23050388 1.99639315 10.45934777 1.5 8.6875 C1.2215625 7.70136719 0.943125 6.71523437 0.65625 5.69921875 C0 3 0 3 0 0 Z M3 6 C4 8 4 8 4 8 Z M4 9 C5 11 5 11 5 11 Z " fill="#3883AB" transform="translate(460,80)"/>
<path d="M0 0 C0.99 0.33 1.98 0.66 3 1 C-1 13 -1 13 -3 14 C-3.66 11.69 -4.32 9.38 -5 7 C-3 4 -3 4 0 3 C0 2.01 0 1.02 0 0 Z M-2 6 C-1 8 -1 8 -1 8 Z M-3 9 C-2 11 -2 11 -2 11 Z " fill="#417D9F" transform="translate(421,156)"/>
<path d="M0 0 C0.66 0 1.32 0 2 0 C5.62870159 9.41002278 5.62870159 9.41002278 4 14 C1.32098068 11.68118495 0.33795597 9.68185532 -0.6875 6.3125 C-0.93886719 5.50425781 -1.19023437 4.69601563 -1.44921875 3.86328125 C-1.63097656 3.24839844 -1.81273437 2.63351563 -2 2 C-1.34 1.67 -0.68 1.34 0 1 C0 0.67 0 0.34 0 0 Z " fill="#7A9A37" transform="translate(254,156)"/>
<path d="M0 0 C0.66 0 1.32 0 2 0 C1.39009109 3.55780196 0.4216319 6.6828589 -1 10 C-2.98 10 -4.96 10 -7 10 C-6.01 7.69 -5.02 5.38 -4 3 C-3.01 2.67 -2.02 2.34 -1 2 C-0.67 1.34 -0.34 0.68 0 0 Z M-4 6 C-3 8 -3 8 -3 8 Z " fill="#97A133" transform="translate(160,71)"/>
<path d="M0 0 C1.32 0 2.64 0 4 0 C5.125 5.75 5.125 5.75 4 8 C4.495 9.0828125 4.495 9.0828125 5 10.1875 C6.00603529 13.01697427 6.16977402 15.02895466 6 18 C4.2228959 15.33434386 3.34169462 13.37272979 2.375 10.375 C2.11460937 9.57835937 1.85421875 8.78171875 1.5859375 7.9609375 C1 6 1 6 1 5 C0.34 4.01 -0.32 3.02 -1 2 C-0.67 1.34 -0.34 0.68 0 0 Z " fill="#4F8AC2" transform="translate(507,51)"/>
<path d="M0 0 C2.18614424 2.18614424 2.68256535 3.53879949 3.625 6.4375 C3.88539063 7.21996094 4.14578125 8.00242187 4.4140625 8.80859375 C5 11 5 11 5 14 C4.34 14 3.68 14 3 14 C3 14.66 3 15.32 3 16 C2.34 16 1.68 16 1 16 C0.34 13.03 -0.32 10.06 -1 7 C-0.34 7.66 0.32 8.32 1 9 C0.67 6.03 0.34 3.06 0 0 Z " fill="#4785CC" transform="translate(458,64)"/>
<path d="M0 0 C1.63565109 6.54260437 -0.28478612 11.09736113 -3 17 C-3.33 16.01 -3.66 15.02 -4 14 C-4.99 13.67 -5.98 13.34 -7 13 C-6.34 12.01 -5.68 11.02 -5 10 C-4.67 10.33 -4.34 10.66 -4 11 C-2.68 7.37 -1.36 3.74 0 0 Z " fill="#4775AD" transform="translate(394,67)"/>
<path d="M0 0 C2.46278801 2.46278801 2.99771255 4.70676982 4 8 C3.01 9.485 3.01 9.485 2 11 C2.66 11.33 3.32 11.66 4 12 C4 13.98 4 15.96 4 18 C1.01286643 14.88299106 0.62942873 12.20170559 0.25 7.97265625 C-0.07089066 5.44062837 -0.92116697 3.30151046 -2 1 C-1.34 0.67 -0.68 0.34 0 0 Z " fill="#406A9B" transform="translate(512,56)"/>
<path d="M0 0 C1.98 0.495 1.98 0.495 4 1 C4.66 3.64 5.32 6.28 6 9 C5.01 9.33 4.02 9.66 3 10 C0.49962266 7.82575883 -0.43628586 6.26954202 -1 3 C-0.01 3 0.98 3 2 3 C1.34 2.67 0.68 2.34 0 2 C0 1.34 0 0.68 0 0 Z M3 6 C4 8 4 8 4 8 Z " fill="#9EA628" transform="translate(272,45)"/>
<path d="M0 0 C4.37653129 0.47620289 6.06538005 1.66899889 8.8125 5.0625 C9.41707031 5.79597656 10.02164063 6.52945313 10.64453125 7.28515625 C11.09183594 7.85105469 11.53914062 8.41695312 12 9 C11.67 9.66 11.34 10.32 11 11 C10.236875 10.34 9.47375 9.68 8.6875 9 C6.15722061 6.70149462 6.15722061 6.70149462 3 7 C2.67 5.68 2.34 4.36 2 3 C1.34 2.67 0.68 2.34 0 2 C0 1.34 0 0.68 0 0 Z " fill="#79832B" transform="translate(607,28)"/>
<path d="M0 0 C2.19459255 0.98378287 3.79664694 1.77896406 5.4375 3.5625 C7.49199044 5.45263121 9.27994277 5.6324247 12 6 C12 6.66 12 7.32 12 8 C12.66 8.33 13.32 8.66 14 9 C13.34 9.66 12.68 10.32 12 11 C8.54798361 9.52278578 6.35038064 7.56205999 3.75 4.875 C3.04359375 4.15054688 2.3371875 3.42609375 1.609375 2.6796875 C0 1 0 1 0 0 Z " fill="#7C863C" transform="translate(603,109)"/>
<path d="M0 0 C1.32 0.66 2.64 1.32 4 2 C3.67 3.32 3.34 4.64 3 6 C2.34 6 1.68 6 1 6 C-0.32 8.64 -1.64 11.28 -3 14 C-3.33 12.68 -3.66 11.36 -4 10 C-3.34 10 -2.68 10 -2 10 C-1.93941406 9.36191406 -1.87882812 8.72382812 -1.81640625 8.06640625 C-1.73261719 7.24011719 -1.64882813 6.41382812 -1.5625 5.5625 C-1.48128906 4.73878906 -1.40007812 3.91507812 -1.31640625 3.06640625 C-1 1 -1 1 0 0 Z " fill="#3E7396" transform="translate(443,89)"/>
<path d="M0 0 C0.33 0.66 0.66 1.32 1 2 C0.01 4.31 -0.98 6.62 -2 9 C-2.33 7.68 -2.66 6.36 -3 5 C-3.66 5 -4.32 5 -5 5 C-5.33 6.65 -5.66 8.3 -6 10 C-6.66 9.67 -7.32 9.34 -8 9 C-7.01 6.69 -6.02 4.38 -5 2 C-3.35 1.34 -1.7 0.68 0 0 Z " fill="#959743" transform="translate(138,130)"/>
<path d="M0 0 C1.65 0 3.3 0 5 0 C4.34 2.31 3.68 4.62 3 7 C1 7 -1 7 -3 7 C-2.01 4.69 -1.02 2.38 0 0 Z " fill="#99A740" transform="translate(163,56)"/>
<path d="M0 0 C0.66 0 1.32 0 2 0 C2.99 1.98 3.98 3.96 5 6 C5.66 6 6.32 6 7 6 C7 7.98 7 9.96 7 12 C6.01 12 5.02 12 4 12 C3.3291288 10.3767313 2.66342971 8.75132422 2 7.125 C1.62875 6.22007813 1.2575 5.31515625 0.875 4.3828125 C0 2 0 2 0 0 Z " fill="#949D3F" transform="translate(256,9)"/>
<path d="M0 0 C0.99 0.33 1.98 0.66 3 1 C3.33 2.98 3.66 4.96 4 7 C-0.75 9 -0.75 9 -3 9 C-2.01 6.03 -1.02 3.06 0 0 Z M0 5 C1 7 1 7 1 7 Z " fill="#3C74A1" transform="translate(380,96)"/>
<path d="M0 0 C0.66 0 1.32 0 2 0 C3.65 4.95 5.3 9.9 7 15 C5.68 14.67 4.36 14.34 3 14 C2.814375 12.9790625 2.814375 12.9790625 2.625 11.9375 C2.15075458 9.70854651 1.5684477 7.50225966 0.9375 5.3125 C0 2 0 2 0 0 Z " fill="#64702A" transform="translate(256,0)"/>
<path d="M0 0 C0.45890625 0.40992187 0.9178125 0.81984375 1.390625 1.2421875 C2.00421875 1.78101562 2.6178125 2.31984375 3.25 2.875 C3.85328125 3.40867187 4.4565625 3.94234375 5.078125 4.4921875 C6.97418746 5.9797487 8.81290005 7.00322436 11 8 C11 9.65 11 11.3 11 13 C7.33333333 9.33333333 3.66666667 5.66666667 0 2 C0 1.34 0 0.68 0 0 Z " fill="#80893F" transform="translate(616,122)"/>
<path d="M0 0 C1 3 1 3 -3 12 C-4.20272819 9.59454362 -4.10071472 8.05003047 -4.0625 5.375 C-4.05347656 4.55773437 -4.04445313 3.74046875 -4.03515625 2.8984375 C-4.02355469 2.27195312 -4.01195312 1.64546875 -4 1 C-2.68 0.67 -1.36 0.34 0 0 Z " fill="#4C8EC3" transform="translate(413,23)"/>
<path d="M0 0 C1.4606285 2.64738916 2 3.89448334 2 7 C1.67 7.99 1.34 8.98 1 10 C-0.65 10 -2.3 10 -4 10 C-3.52449439 8.51965236 -3.04448784 7.04074979 -2.5625 5.5625 C-2.29566406 4.73878906 -2.02882813 3.91507813 -1.75390625 3.06640625 C-1 1 -1 1 0 0 Z " fill="#4478A8" transform="translate(413,14)"/>
<path d="M0 0 C0.66 0 1.32 0 2 0 C1.67 1.65 1.34 3.3 1 5 C-1.475 6.485 -1.475 6.485 -4 8 C-4.66 7.67 -5.32 7.34 -6 7 C-5.34 5.68 -4.68 4.36 -4 3 C-3.01 3 -2.02 3 -1 3 C-0.67 2.01 -0.34 1.02 0 0 Z " fill="#7A8A2F" transform="translate(139,124)"/>
<path d="M0 0 C2.76223278 2.76223278 2.57856291 5.20706617 3 9 C1.68 9.33 0.36 9.66 -1 10 C-2.46726798 6.18510326 -1.43336419 3.70988378 0 0 Z " fill="#9A9D3F" transform="translate(283,68)"/>
<path d="M0 0 C0.33 0 0.66 0 1 0 C1 1.65 1 3.3 1 5 C1.66 5 2.32 5 3 5 C2.44271087 8.34373475 1.64826111 11.03312999 0 14 C-0.66 13.67 -1.32 13.34 -2 13 C-1.649375 11.948125 -1.29875 10.89625 -0.9375 9.8125 C-0.05029473 6.2045319 0.05262882 4.47367511 -1 1 C-0.67 0.67 -0.34 0.34 0 0 Z " fill="#83AB31" transform="translate(216,69)"/>
<path d="M0 0 C0.66 0 1.32 0 2 0 C2.33 2.31 2.66 4.62 3 7 C3.66 7 4.32 7 5 7 C4.34 8.32 3.68 9.64 3 11 C3 10.34 3 9.68 3 9 C2.34 9 1.68 9 1 9 C-1.125 3.375 -1.125 3.375 0 0 Z " fill="#A3B03B" transform="translate(219,58)"/>
<path d="M0 0 C1.32 0.33 2.64 0.66 4 1 C4.33 3.64 4.66 6.28 5 9 C4.01 9 3.02 9 2 9 C2 7.68 2 6.36 2 5 C1.34 4.67 0.68 4.34 0 4 C0 2.68 0 1.36 0 0 Z " fill="#3C6FB2" transform="translate(490,6)"/>
<path d="M0 0 C1.32 0 2.64 0 4 0 C4 1.98 4 3.96 4 6 C3.01 5.67 2.02 5.34 1 5 C0.01 6.485 0.01 6.485 -1 8 C-1.66 7.67 -2.32 7.34 -3 7 C-2.01 4.69 -1.02 2.38 0 0 Z M1 1 C2 3 2 3 2 3 Z " fill="#96A330" transform="translate(138,119)"/>
<path d="M0 0 C0.99 0 1.98 0 3 0 C6.42857143 7.28571429 6.42857143 7.28571429 6 12 C4.25372522 9.38058783 3.61277612 7.96175123 3 5 C2.34 5 1.68 5 1 5 C0.67 3.35 0.34 1.7 0 0 Z " fill="#7481A8" transform="translate(526,97)"/>
<path d="M0 0 C0.66 0 1.32 0 2 0 C2.33 2.97 2.66 5.94 3 9 C1.68 9 0.36 9 -1 9 C-1.80967438 6.08517222 -2.21845993 4.53886783 -1.0625 1.6875 C-0.711875 1.130625 -0.36125 0.57375 0 0 Z " fill="#506E9E" transform="translate(467,92)"/>
<path d="M0 0 C0.99 0 1.98 0 3 0 C2.88541307 1.43836751 2.75790884 2.87570966 2.625 4.3125 C2.55539062 5.11300781 2.48578125 5.91351563 2.4140625 6.73828125 C2 9 2 9 0 12 C-0.85691641 8.57233436 -1.01174497 6.37248325 0 3 C0 2.01 0 1.02 0 0 Z " fill="#4991C6" transform="translate(387,81)"/>
<path d="M0 0 C0.99 0 1.98 0 3 0 C2.67 1.32 2.34 2.64 2 4 C2.66 4.33 3.32 4.66 4 5 C3.67 6.32 3.34 7.64 3 9 C2.34 9 1.68 9 1 9 C0.67 7.02 0.34 5.04 0 3 C-0.66 3 -1.32 3 -2 3 C-1 1 -1 1 0 0 Z M1 4 C2 6 2 6 2 6 Z " fill="#416DA2" transform="translate(451,63)"/>
<path d="M0 0 C1.65 0 3.3 0 5 0 C6.98 1.98 8.96 3.96 11 6 C10.67 6.66 10.34 7.32 10 8 C9.52949219 7.59007813 9.05898438 7.18015625 8.57421875 6.7578125 C7.95160156 6.21898438 7.32898438 5.68015625 6.6875 5.125 C6.07261719 4.59132813 5.45773437 4.05765625 4.82421875 3.5078125 C2.86501788 1.8359553 2.86501788 1.8359553 0 0 Z " fill="#949F39" transform="translate(603,108)"/>
<path d="M0 0 C-0.45082469 1.46067199 -0.91093537 2.91848032 -1.375 4.375 C-1.63023437 5.18710938 -1.88546875 5.99921875 -2.1484375 6.8359375 C-3 9 -3 9 -5 11 C-5 7.7 -5 4.4 -5 1 C-2 0 -2 0 0 0 Z " fill="#446D9C" transform="translate(453,73)"/>
<path d="M0 0 C0.66 0 1.32 0 2 0 C2.79953138 3.28696233 3.09658936 4.71023192 2 8 C1.01 8 0.02 8 -1 8 C-0.67 5.36 -0.34 2.72 0 0 Z " fill="#A3AF3D" transform="translate(227,74)"/>
<path d="M0 0 C0.66 0 1.32 0 2 0 C2 0.99 2 1.98 2 3 C2.66 3 3.32 3 4 3 C4 3.99 4 4.98 4 6 C2.02 6 0.04 6 -2 6 C-1.34 4.02 -0.68 2.04 0 0 Z " fill="#3E76B1" transform="translate(400,46)"/>
<path d="M0 0 C2.88437779 1.29299694 4.87219421 2.65941363 7 5 C7 5.99 7 6.98 7 8 C6.34 8 5.68 8 5 8 C0 2.25 0 2.25 0 0 Z " fill="#8F9B3C" transform="translate(612,35)"/>
<path d="M0 0 C0.93423645 3.01031744 1.04449911 3.86650268 0 7 C0.66 7.33 1.32 7.66 2 8 C1.01 8.33 0.02 8.66 -1 9 C-1.66 9.66 -2.32 10.32 -3 11 C-2.32829194 7.1936543 -1.27253436 3.64793184 0 0 Z " fill="#832979" transform="translate(359,159)"/>
<path d="M0 0 C0.66 0.66 1.32 1.32 2 2 C0.35 3.65 -1.3 5.3 -3 7 C-3.66 7 -4.32 7 -5 7 C-4.34 5.02 -3.68 3.04 -3 1 C-2.01 0.67 -1.02 0.34 0 0 Z " fill="#676F3C" transform="translate(156,80)"/>
<path d="M0 0 C2.6855594 2.6855594 3.06049974 5.37621328 4 9 C3.01 9 2.02 9 1 9 C1 7.68 1 6.36 1 5 C0.34 5 -0.32 5 -1 5 C-0.67 3.35 -0.34 1.7 0 0 Z " fill="#63871D" transform="translate(286,75)"/>
<path d="M0 0 C1.66832577 2.50248865 2.62381674 4.41149187 3.625 7.1875 C4.01558594 8.26064453 4.01558594 8.26064453 4.4140625 9.35546875 C4.60742188 9.89816406 4.80078125 10.44085938 5 11 C4.01 11.495 4.01 11.495 3 12 C3 11.34 3 10.68 3 10 C2.34 10 1.68 10 1 10 C0.67 6.7 0.34 3.4 0 0 Z " fill="#5B6025" transform="translate(263,16)"/>
<path d="M0 0 C0.99 0.66 1.98 1.32 3 2 C3 3.65 3 5.3 3 7 C2.01 7 1.02 7 0 7 C0 6.34 0 5.68 0 5 C-0.66 5 -1.32 5 -2 5 C-1.34 3.35 -0.68 1.7 0 0 Z " fill="#547198" transform="translate(416,7)"/>
<path d="M0 0 C0.99 0.99 1.98 1.98 3 3 C3 5.31 3 7.62 3 10 C-0.00617269 6.99382731 0.40414684 4.17618402 0 0 Z " fill="#5087BB" transform="translate(531,112)"/>
<path d="M0 0 C0.33 0 0.66 0 1 0 C1 1.98 1 3.96 1 6 C1.66 6.33 2.32 6.66 3 7 C1.35 7.33 -0.3 7.66 -2 8 C-1.125 2.25 -1.125 2.25 0 0 Z " fill="#4C8AC5" transform="translate(450,66)"/>
<path d="M0 0 C1.65 0 3.3 0 5 0 C5.33 1.32 5.66 2.64 6 4 C5.34 3.67 4.68 3.34 4 3 C3.01 4.485 3.01 4.485 2 6 C1.34 4.02 0.68 2.04 0 0 Z " fill="#3B6CC3" transform="translate(493,19)"/>
<path d="M0 0 C2.6855594 2.6855594 3.06049974 5.37621328 4 9 C2.68 8.34 1.36 7.68 0 7 C0 4.69 0 2.38 0 0 Z " fill="#4273AD" transform="translate(528,103)"/>
<path d="M0 0 C0.33 0 0.66 0 1 0 C1 2.31 1 4.62 1 7 C-0.98 7.99 -0.98 7.99 -3 9 C-2.01 6.03 -1.02 3.06 0 0 Z " fill="#0D6B53" transform="translate(186,5)"/>
<path d="M0 0 C2.31 1.98 4.62 3.96 7 6 C6.01 6.495 6.01 6.495 5 7 C3.35 5.68 1.7 4.36 0 3 C0 2.01 0 1.02 0 0 Z " fill="#8E9B3C" transform="translate(657,162)"/>
<path d="M0 0 C0.99 0.33 1.98 0.66 3 1 C3 2.32 3 3.64 3 5 C1.35 5 -0.3 5 -2 5 C-1.34 3.35 -0.68 1.7 0 0 Z " fill="#8C7E49" transform="translate(140,114)"/>
<path d="M0 0 C0.99 0.99 1.98 1.98 3 3 C2.67 4.98 2.34 6.96 2 9 C1.34 9 0.68 9 0 9 C0 6.03 0 3.06 0 0 Z " fill="#966F40" transform="translate(210,87)"/>
<path d="M0 0 C0.66 0 1.32 0 2 0 C3.125 4.75 3.125 4.75 2 7 C1.01 6.67 0.02 6.34 -1 6 C-1.33 4.68 -1.66 3.36 -2 2 C-1.34 1.67 -0.68 1.34 0 1 C0 0.67 0 0.34 0 0 Z " fill="#838423" transform="translate(228,80)"/>
<path d="M0 0 C2.475 0.99 2.475 0.99 5 2 C5.66 1.67 6.32 1.34 7 1 C6.67 2.32 6.34 3.64 6 5 C3.525 4.01 3.525 4.01 1 3 C0.67 2.01 0.34 1.02 0 0 Z " fill="#919F38" transform="translate(644,71)"/>
<path d="M0 0 C2.49361571 1.20381448 4.68143083 2.45428722 7 4 C6.67 4.66 6.34 5.32 6 6 C3.37812506 4.95125002 2.20628639 4.35068687 0.75 1.875 C0.5025 1.25625 0.255 0.6375 0 0 Z " fill="#8F8B44" transform="translate(581,0)"/>
<path d="M0 0 C0.66 0 1.32 0 2 0 C2 4.29 2 8.58 2 13 C1.67 13 1.34 13 1 13 C0.67 8.71 0.34 4.42 0 0 Z " fill="#000000" transform="translate(389,211)"/>
<path d="M0 0 C0.99 0.495 0.99 0.495 2 1 C1.67 3.31 1.34 5.62 1 8 C0.67 8 0.34 8 0 8 C0 5.36 0 2.72 0 0 Z " fill="#000000" transform="translate(372,205)"/>
<path d="M0 0 C0.33 0 0.66 0 1 0 C1 1.65 1 3.3 1 5 C0.34 5 -0.32 5 -1 5 C-0.67 3.35 -0.34 1.7 0 0 Z " fill="#000000" transform="translate(478,223)"/>
<path d="M0 0 C0.66 0.33 1.32 0.66 2 1 C1.34 2.32 0.68 3.64 0 5 C-0.33 3.68 -0.66 2.36 -1 1 C-0.67 0.67 -0.34 0.34 0 0 Z " fill="#000000" transform="translate(376,196)"/>
<path d="M0 0 C0.66 0 1.32 0 2 0 C2.33 1.32 2.66 2.64 3 4 C2.01 4.495 2.01 4.495 1 5 C0.67 3.35 0.34 1.7 0 0 Z " fill="#000000" transform="translate(419,223)"/>
<path d="M0 0 C1.98 0.495 1.98 0.495 4 1 C4 1.33 4 1.66 4 2 C2.35 2 0.7 2 -1 2 C-0.67 1.34 -0.34 0.68 0 0 Z " fill="#000000" transform="translate(630,196)"/>
<path d="M0 0 C0.99 0.33 1.98 0.66 3 1 C1.02 1.99 1.02 1.99 -1 3 C-1.33 2.34 -1.66 1.68 -2 1 C-1.34 0.67 -0.68 0.34 0 0 Z " fill="#000000" transform="translate(412,193)"/>
<path d="M0 0 C0.99 0.495 0.99 0.495 2 1 C2 1.99 2 2.98 2 4 C1.34 4 0.68 4 0 4 C0 2.68 0 1.36 0 0 Z " fill="#000000" transform="translate(477,205)"/>
<path d="M0 0 C0.33 1.32 0.66 2.64 1 4 C0.34 4 -0.32 4 -1 4 C-0.67 2.68 -0.34 1.36 0 0 Z " fill="#000000" transform="translate(408,197)"/>
<path d="M0 0 C0.33 0 0.66 0 1 0 C1 1.65 1 3.3 1 5 C0.34 3.68 -0.32 2.36 -1 1 C-0.67 0.67 -0.34 0.34 0 0 Z " fill="#000000" transform="translate(299,197)"/>
<path d="M0 0 C1.32 0.33 2.64 0.66 4 1 C2.68 1.33 1.36 1.66 0 2 C0 1.34 0 0.68 0 0 Z " fill="#000000" transform="translate(393,196)"/>
<path d="M0 0 C0.33 1.32 0.66 2.64 1 4 C0.34 4 -0.32 4 -1 4 C-0.67 2.68 -0.34 1.36 0 0 Z " fill="#000000" transform="translate(299,224)"/>
<path d="M0 0 C0.66 1.32 1.32 2.64 2 4 C1.34 4 0.68 4 0 4 C0 2.68 0 1.36 0 0 Z " fill="#000000" transform="translate(388,223)"/>
<path d="M0 0 C0.99 0.495 0.99 0.495 2 1 C1.34 2.32 0.68 3.64 0 5 C0 3.35 0 1.7 0 0 Z " fill="#000000" transform="translate(492,223)"/>
<path d="M0 0 C0.99 0.66 1.98 1.32 3 2 C1.35 2 -0.3 2 -2 2 C-1.34 1.34 -0.68 0.68 0 0 Z " fill="#000000" transform="translate(649,193)"/>
<path d="M0 0 C0.99 0.33 1.98 0.66 3 1 C1.68 1.33 0.36 1.66 -1 2 C-0.67 1.34 -0.34 0.68 0 0 Z " fill="#000000" transform="translate(484,193)"/>
<path d="M0 0 C0.99 0.33 1.98 0.66 3 1 C1.68 1.33 0.36 1.66 -1 2 C-0.67 1.34 -0.34 0.68 0 0 Z " fill="#000000" transform="translate(380,193)"/>
<path d="M0 0 C0.99 0.99 1.98 1.98 3 3 C2.01 2.67 1.02 2.34 0 2 C0 1.34 0 0.68 0 0 Z " fill="#000000" transform="translate(659,224)"/>
<path d="M0 0 C0.33 0 0.66 0 1 0 C1 1.65 1 3.3 1 5 C0.67 5 0.34 5 0 5 C0 3.35 0 1.7 0 0 Z " fill="#000000" transform="translate(642,205)"/>
<path d="M0 0 C1 4 1 4 1 4 Z " fill="#000000" transform="translate(682,224)"/>
<path d="M0 0 C0.99 0.33 1.98 0.66 3 1 C2.01 1.33 1.02 1.66 0 2 C0 1.34 0 0.68 0 0 Z " fill="#000000" transform="translate(602,215)"/>
<path d="M0 0 C1 4 1 4 1 4 Z " fill="#000000" transform="translate(492,205)"/>
<path d="M0 0 C0.66 0 1.32 0 2 0 C1.67 0.66 1.34 1.32 1 2 C0.67 1.34 0.34 0.68 0 0 Z " fill="#000000" transform="translate(369,214)"/>
<path d="M0 0 C0.66 0.66 1.32 1.32 2 2 C1.34 2 0.68 2 0 2 C0 1.34 0 0.68 0 0 Z " fill="#A9C224" transform="translate(601,106)"/>
<path d="" fill="#5571E2" transform="translate(0,0)"/>
<path d="" fill="#007FBF" transform="translate(0,0)"/>
<path d="" fill="#000000" transform="translate(0,0)"/>
<path d="" fill="#000000" transform="translate(0,0)"/>
<path d="" fill="#000000" transform="translate(0,0)"/>
<path d="" fill="#000000" transform="translate(0,0)"/>
<path d="" fill="#000000" transform="translate(0,0)"/>
<path d="" fill="#000000" transform="translate(0,0)"/>
<path d="" fill="#000000" transform="translate(0,0)"/>
<path d="" fill="#000000" transform="translate(0,0)"/>
<path d="" fill="#000000" transform="translate(0,0)"/>
<path d="" fill="#000000" transform="translate(0,0)"/>
<path d="" fill="#000000" transform="translate(0,0)"/>
<path d="" fill="#000000" transform="translate(0,0)"/>
<path d="" fill="#000000" transform="translate(0,0)"/>
<path d="" fill="#000000" transform="translate(0,0)"/>
<path d="" fill="#000000" transform="translate(0,0)"/>
<path d="" fill="#000000" transform="translate(0,0)"/>
<path d="" fill="#000000" transform="translate(0,0)"/>
<path d="" fill="#000000" transform="translate(0,0)"/>
<path d="" fill="#000000" transform="translate(0,0)"/>
<path d="" fill="#AAAA55" transform="translate(0,0)"/>
<path d="" fill="#AAAA55" transform="translate(0,0)"/>
</svg>
